<?xml version="1.0" standalone="no"?>
<!DOCTYPE svg PUBLIC "-//W3C//DTD SVG 20010904//EN"
 "http://www.w3.org/TR/2001/REC-SVG-20010904/DTD/svg10.dtd">
<svg version="1.0" xmlns="http://www.w3.org/2000/svg"
 width="512.000000pt" height="512.000000pt" viewBox="0 0 512.000000 512.000000"
 preserveAspectRatio="xMidYMid meet">

<g transform="translate(0.000000,512.000000) scale(0.100000,-0.100000)"
fill="#000000" stroke="none">
<path d="M2461 5110 c-130 -18 -251 -65 -361 -141 -57 -39 -1572 -1552 -1629
-1626 -44 -58 -105 -194 -127 -283 -28 -114 -24 -279 10 -393 31 -104 63 -170
121 -252 146 -205 379 -325 635 -327 225 -1 426 81 590 241 l59 58 3 -856 c4
-934 1 -881 62 -1033 73 -179 221 -335 397 -418 209 -98 468 -98 676 0 215
100 367 284 435 525 22 80 22 84 26 931 l3 851 62 -61 c168 -165 372 -242 617
-233 106 3 139 9 215 35 116 39 199 87 281 165 171 159 256 354 257 587 0 144
-18 220 -85 360 l-51 105 -786 788 c-432 434 -813 808 -847 833 -157 113 -377
169 -563 144z m224 -325 c125 -33 126 -33 936 -844 582 -582 774 -779 797
-822 104 -186 77 -408 -70 -564 -138 -148 -350 -195 -533 -118 -77 33 -131 78
-335 279 -130 128 -216 205 -233 209 -67 17 -137 -9 -181 -69 -21 -27 -21 -36
-26 -1094 -5 -1061 -5 -1067 -26 -1124 -29 -74 -70 -134 -138 -196 -226 -206
-581 -144 -739 128 -58 101 -57 70 -57 1195 l0 1031 -22 44 c-13 24 -35 53
-50 63 -38 28 -116 34 -158 12 -18 -9 -117 -101 -219 -204 -250 -252 -342
-310 -491 -311 -144 0 -270 51 -363 149 -99 103 -143 222 -134 360 6 105 33
180 92 258 73 97 1523 1536 1580 1568 106 61 251 81 370 50z"/>
</g>
</svg>
